<svg width="38" height="37" viewBox="0 0 38 37" fill="none" xmlns="http://www.w3.org/2000/svg">
<g clip-path="url(#clip0_44_56)">
<path d="M31.6914 0H6.30859C2.82445 0 0 2.81613 0 6.29V30.6508C0 34.1247 2.82445 36.9408 6.30859 36.9408H31.6914C35.1755 36.9408 38 34.1247 38 30.6508V6.29C38 2.81613 35.1755 0 31.6914 0Z" fill="#330000"/>
<path d="M18.4143 22.1689H12.5258L11.3276 25.8797C11.3113 25.9474 11.2718 26.0073 11.2159 26.0491C11.1601 26.0908 11.0914 26.1119 11.0216 26.1085H8.03908C7.86907 26.1085 7.80959 26.0153 7.86066 25.8288L12.959 11.1889C13.01 11.0365 13.061 10.8629 13.1119 10.668C13.1787 10.3288 13.2129 9.98423 13.2139 9.63865C13.2104 9.61447 13.2127 9.58983 13.2204 9.56666C13.2281 9.54349 13.2412 9.52244 13.2585 9.50516C13.2758 9.48789 13.2969 9.47487 13.3201 9.46713C13.3434 9.4594 13.3681 9.45717 13.3923 9.4606H17.4456C17.5643 9.4606 17.6323 9.50303 17.6495 9.58788L23.4361 25.8543C23.487 26.024 23.4361 26.1087 23.2832 26.1085H19.9692C19.9123 26.1147 19.855 26.1001 19.8082 26.0674C19.7613 26.0347 19.7279 25.9861 19.7143 25.9306L18.4143 22.1689ZM13.4434 18.9665H17.4711L17.4136 18.7775L17.3215 18.4782L17.2557 18.2681L17.1508 17.9372L16.9277 17.2405L16.2218 15.0142C16.095 14.6142 15.9733 14.2127 15.8567 13.8097L15.7635 13.4827L15.6545 13.0959L15.4883 12.4965L15.4571 12.3836H15.4317C15.3041 12.9937 15.1488 13.5976 14.9662 14.1936L14.588 15.4067L14.1698 16.7552C14.1319 16.8778 14.0941 16.9989 14.0563 17.1187L13.9435 17.4736L13.8313 17.8202L13.7196 18.1583L13.6086 18.4879C13.5718 18.5964 13.535 18.7035 13.4983 18.809L13.4434 18.9665ZM26.8771 12.1548C26.6171 12.1652 26.3579 12.1207 26.1163 12.0244C25.8747 11.928 25.6562 11.7819 25.4751 11.5957C25.2947 11.4012 25.1544 11.1731 25.0626 10.9245C24.9707 10.6759 24.9289 10.4116 24.9397 10.1469C24.9305 9.88479 24.9768 9.6237 25.0756 9.38066C25.1745 9.13763 25.3236 8.91811 25.5133 8.73644C25.8792 8.38622 26.3665 8.19023 26.8737 8.18928L26.928 8.18988C27.5399 8.18988 28.0201 8.37201 28.3685 8.73629C28.5443 8.92562 28.681 9.14766 28.7706 9.38971C28.8603 9.63176 28.9012 9.88905 28.891 10.1469C28.9018 10.4127 28.8588 10.678 28.7647 10.9269C28.6705 11.1758 28.5271 11.4033 28.343 11.5958C28.1571 11.7784 27.9365 11.9221 27.6941 12.0184C27.4517 12.1148 27.1925 12.1618 26.9316 12.1567L26.8771 12.1548ZM25.1181 25.8543V13.7052C25.118 13.5527 25.186 13.4764 25.3221 13.4764H28.4577C28.5936 13.4764 28.6615 13.5527 28.6616 13.7052V25.8543C28.6616 26.024 28.5937 26.1087 28.4577 26.1085H25.3476C25.2028 26.1085 25.1265 26.0325 25.1189 25.8803L25.1181 25.8543Z" fill="#FF9A00"/>
</g>
<defs>
<clipPath id="clip0_44_56">
<rect width="38" height="37" fill="white"/>
</clipPath>
</defs>
</svg>
