<svg width="16" height="16" viewBox="0 0 16 16" fill="none" xmlns="http://www.w3.org/2000/svg">
<path d="M2.39997 1H13.6V15H2.39997M1.46497 1.935H14.535V14.065H1.46497" fill="#6D6A76"/>
<path d="M3.33497 1H12.665V15H3.33497M2.39997 1.935H13.6V14.065H2.39997M1.46497 2.865H14.535V13.135H1.46497" fill="#655561"/>
<path d="M3.33502 1.93506H12.665V14.0651H3.33502M2.40002 2.86506H13.6V13.1351H2.40002V2.86506Z" fill="#7D929E"/>
<path d="M3.33502 1.93506H12.665V12.2001H3.33502M2.40002 2.86506H13.6V11.2651H2.40002V2.86506Z" fill="white"/>
<path d="M5.19995 4.73486H6.13495V8.46486H5.19995V4.73486ZM9.86495 4.73486H10.8V8.46486H9.86495V4.73486Z" fill="#655561"/>
</svg>
