<svg width="24" height="24" viewBox="0 0 24 24" fill="none" xmlns="http://www.w3.org/2000/svg">
<path d="M13.391 0.268326C12.4968 -0.0894421 11.4992 -0.0894421 10.605 0.268326L7.686 1.43633L18.936 5.93533L23.044 4.29133C22.8127 4.09281 22.5506 3.93338 22.268 3.81933L13.391 0.268326ZM16.916 6.74333L5.666 2.24333L1.728 3.81933C1.44454 3.93171 1.18216 4.0913 0.952 4.29133L11.998 8.71133L16.916 6.74333ZM1.67432e-07 6.37333C0.000666834 6.09599 0.0400002 5.82933 0.118 5.57333L11.248 10.0263V23.4613C11.0287 23.4154 10.8136 23.3512 10.605 23.2693L1.728 19.7183C1.21772 19.5141 0.780353 19.1616 0.472342 18.7063C0.164332 18.2511 -0.000191589 17.714 1.67432e-07 17.1643V6.37333ZM13.391 23.2683C13.1803 23.3523 12.966 23.4163 12.748 23.4603V10.0263L23.878 5.57333C23.956 5.82933 23.9953 6.09599 23.996 6.37333V17.1643C23.9962 17.714 23.8317 18.2511 23.5237 18.7063C23.2156 19.1616 22.7783 19.5141 22.268 19.7183L13.391 23.2683Z" fill="#11571C"/>
</svg>
