<svg width="16" height="16" viewBox="0 0 16 16" fill="none" xmlns="http://www.w3.org/2000/svg">
<g clip-path="url(#clip0_45_62)">
<path d="M7.42374 0.0191846C7.36324 0.0255596 7.17436 0.0479346 7.00774 0.0675596C6.33599 0.144185 5.57424 0.345935 4.90574 0.62756C2.48636 1.63843 0.665488 3.85631 0.163113 6.40018C0.0448633 7.00518 0.0161133 7.30243 0.0161133 8.00018C0.0161133 8.89956 0.105488 9.52018 0.342363 10.3044C1.11674 12.8707 3.13274 14.8834 5.70561 15.6608C6.47999 15.8947 7.10399 15.9841 7.99999 15.9841C8.89936 15.9841 9.51999 15.8947 10.3042 15.6578C12.8705 14.8834 14.8832 12.8674 15.6606 10.2946C15.8945 9.52019 15.9839 8.89618 15.9839 8.00018C15.9839 7.61931 15.9649 7.18431 15.9424 7.02406C15.6831 5.17456 14.9214 3.61931 13.6514 2.34881C12.3837 1.08806 10.835 0.323435 9.02374 0.0641846C8.77424 0.0289346 7.61899 -0.00331539 7.42374 0.0191846ZM4.81586 5.05918C4.98586 5.11043 5.06536 5.15843 5.18061 5.27356C5.40474 5.50106 5.45599 5.62568 5.45599 5.96793C5.45599 6.22431 5.44624 6.27218 5.36961 6.40643C5.22211 6.65593 4.87986 6.88643 4.64311 6.89268C4.47649 6.89618 4.48336 6.82243 4.66561 6.63056C4.90874 6.37768 4.94386 6.28181 4.94386 5.90393C4.94086 5.53931 4.89599 5.41468 4.72649 5.31218C4.58549 5.22581 4.43211 5.23218 4.20799 5.33756C3.62549 5.61631 2.99511 6.54418 2.74899 7.49481C2.42236 8.76193 3.00149 9.77606 3.95511 9.60318C4.23336 9.55193 4.75824 9.28343 4.98586 9.07193C5.17436 8.89956 5.17436 8.89619 5.19336 8.68194C5.23536 8.23356 5.55174 7.78581 5.97461 7.57781C6.16936 7.48156 6.21774 7.47231 6.47999 7.47231C6.72949 7.47231 6.78711 7.48506 6.90874 7.55193C7.29586 7.77318 7.21586 8.28819 6.79686 8.28819C6.55374 8.28819 6.42874 8.16318 6.60499 8.09643C6.77786 8.03243 6.71336 7.79218 6.51224 7.73793C6.27536 7.67693 6.00636 7.83706 5.83686 8.14419C5.63186 8.51544 5.62249 8.95718 5.81736 9.15843C6.00636 9.36006 6.24311 9.20043 6.42574 8.74231C6.52149 8.50893 6.65911 8.38393 6.81936 8.38393C6.95999 8.38393 6.98586 8.47043 6.92474 8.73306C6.83499 9.13931 6.89599 9.24481 7.14886 9.12031C7.23186 9.08168 7.36961 8.99244 7.45261 8.92844L7.60936 8.80344L7.71536 8.24969C7.83061 7.62906 7.87499 7.54556 8.11186 7.50118C8.33936 7.45918 8.39061 7.57143 8.30711 7.92643L8.26211 8.12519L8.42874 7.95518C8.82224 7.55193 9.30561 7.35368 9.47211 7.52018C9.56149 7.60956 9.55174 7.72181 9.42386 8.11831C9.36324 8.30731 9.27974 8.60518 9.24174 8.77456C9.18411 9.03043 9.18061 9.09144 9.21299 9.13306C9.31549 9.25456 9.62886 9.12956 9.90724 8.85756L10.0704 8.69794L10.0899 8.34243C10.1089 7.93281 10.147 7.78581 10.2559 7.65443C10.3584 7.53293 10.544 7.44356 10.6431 7.46893C10.7422 7.49481 10.7422 7.59056 10.6529 7.87231C10.5279 8.25943 10.541 9.15206 10.669 9.15206C10.7202 9.15206 10.9824 8.87706 11.149 8.64668L11.2735 8.47668L11.1744 8.37469C11.0015 8.19219 10.96 8.07393 10.96 7.77606C10.96 7.55881 10.9761 7.47868 11.0302 7.37268C11.1201 7.20668 11.2607 7.08518 11.4272 7.03681C11.603 6.98256 11.8207 7.07193 11.9101 7.23206C12 7.39518 11.9776 7.75993 11.8622 8.00993L11.7792 8.19206H11.8911C12.0449 8.19206 12.1055 8.15393 12.3809 7.89468C12.5249 7.75706 12.6914 7.63843 12.8159 7.58081C13.3056 7.35081 13.8819 7.46893 13.9775 7.82093C14.0575 8.10268 13.8819 8.30093 13.5742 8.27843C13.3535 8.26243 13.312 8.20468 13.44 8.09643C13.6704 7.90393 13.44 7.65793 13.1104 7.74731C12.9311 7.79556 12.7295 7.99681 12.6241 8.23069C12.4126 8.69794 12.5249 9.24819 12.8286 9.24819C12.9502 9.24819 13.165 9.00806 13.248 8.77456C13.3471 8.50556 13.5551 8.33619 13.7119 8.39706C13.7984 8.42894 13.8047 8.51531 13.7505 8.78731C13.6895 9.08518 13.6801 9.36356 13.728 9.49144C13.7471 9.53919 13.8047 9.62906 13.8594 9.68968C13.9614 9.80481 13.9649 9.84644 13.8784 9.90106C13.8369 9.92981 13.7821 9.91719 13.648 9.84356C13.4624 9.74731 13.3022 9.57444 13.2446 9.41131L13.2095 9.31556L13.0815 9.41131C13.0077 9.46256 12.8926 9.52018 12.8256 9.53918C12.56 9.60956 12.2334 9.42743 12.0801 9.12031C12.019 9.00156 12 8.65306 12.0449 8.51869C12.0704 8.44494 12.0704 8.44494 11.9677 8.49619C11.9136 8.52506 11.7984 8.55681 11.709 8.56656C11.5615 8.58281 11.539 8.59881 11.3921 8.78431C11.1841 9.04306 10.8159 9.39231 10.6655 9.46606C10.3457 9.62568 10.2402 9.58081 10.1567 9.25106L10.0991 9.03043L9.96136 9.15206C9.78561 9.30581 9.43361 9.49144 9.23186 9.53631C9.03999 9.57781 8.83499 9.51681 8.75186 9.38881C8.62749 9.19694 8.66899 8.79068 8.86711 8.24331C9.01411 7.83706 8.90874 7.83081 8.53761 8.21793C8.26224 8.50893 8.14399 8.71693 8.06736 9.04018C7.98736 9.37618 7.89111 9.49768 7.67386 9.54893C7.54249 9.57781 7.48136 9.49768 7.50736 9.32193L7.52636 9.18081L7.40474 9.26431C7.23186 9.38256 7.01411 9.49144 6.86374 9.53294C6.71336 9.57444 6.51511 9.52993 6.46724 9.44643C6.38086 9.29956 6.38086 9.29956 6.24661 9.40493C5.95511 9.64181 5.53911 9.57443 5.32811 9.26093L5.26061 9.16181L5.04974 9.35706C4.44136 9.91381 3.68011 10.1633 3.11674 9.99043C2.39986 9.77318 2.00336 9.15844 2.00974 8.27219C2.01274 7.38256 2.40624 6.44506 3.06886 5.75068C3.44336 5.36006 3.79536 5.12956 4.15386 5.04318C4.41261 4.97918 4.56986 4.98243 4.81586 5.05918Z" fill="#00C4CC"/>
<path d="M11.3022 7.33481C11.2318 7.40506 11.2577 7.68681 11.3472 7.86606C11.3921 7.95881 11.4399 8.03256 11.4559 8.03256C11.4687 8.03256 11.4974 7.95881 11.5199 7.86893C11.5999 7.53643 11.4559 7.18093 11.3022 7.33481Z" fill="#00C4CC"/>
</g>
<defs>
<clipPath id="clip0_45_62">
<rect width="16" height="16" fill="white"/>
</clipPath>
</defs>
</svg>
