<svg width="9" height="9" viewBox="0 0 9 9" fill="none" xmlns="http://www.w3.org/2000/svg">
<path d="M6.06701 0.421068C6.34992 0.147831 6.72882 -0.00336092 7.12212 5.6704e-05C7.51541 0.00347433 7.89163 0.161228 8.16974 0.43934C8.44785 0.717452 8.60561 1.09367 8.60902 1.48697C8.61244 1.88026 8.46125 2.25916 8.18801 2.54207L6.42001 4.31007L8.18801 6.07807C8.45649 6.36177 8.60371 6.73902 8.59837 7.12958C8.59303 7.52015 8.43556 7.89323 8.15942 8.16949C7.88329 8.44575 7.51029 8.60341 7.11972 8.60893C6.72916 8.61445 6.35185 8.46741 6.06801 8.19907L4.29801 6.43107L2.53101 8.19907C2.24666 8.46403 1.87057 8.60827 1.48197 8.60142C1.09337 8.59456 0.722596 8.43714 0.44777 8.16231C0.172944 7.88748 0.01552 7.51671 0.00866361 7.12811C0.00180717 6.73951 0.146054 6.36342 0.411014 6.07907L2.17801 4.30907L0.410014 2.54307C0.14167 2.25923 -0.00537317 1.88192 0.000150156 1.49136C0.00567348 1.10079 0.163327 0.72779 0.43959 0.451658C0.715852 0.175526 1.08893 0.0180473 1.4795 0.0127081C1.87006 0.007369 2.24731 0.15459 2.53101 0.423068L4.29901 2.18807L6.06701 0.421068Z" fill="white"/>
</svg>
