<svg width="20" height="10" viewBox="0 0 20 10" fill="none" xmlns="http://www.w3.org/2000/svg">
<path d="M8 9H5C3.93913 9 2.92172 8.57857 2.17157 7.82843C1.42143 7.07828 1 6.06087 1 5C1 3.93913 1.42143 2.92172 2.17157 2.17157C2.92172 1.42143 3.93913 1 5 1H8M14 5H6M12 9H15C16.0609 9 17.0783 8.57857 17.8284 7.82843C18.5786 7.07828 19 6.06087 19 5C19 3.93913 18.5786 2.92172 17.8284 2.17157C17.0783 1.42143 16.0609 1 15 1H12" stroke="#11571C" stroke-width="2" stroke-linecap="round" stroke-linejoin="round"/>
</svg>
