<svg width="16" height="16" viewBox="0 0 16 16" fill="none" xmlns="http://www.w3.org/2000/svg">
<g clip-path="url(#clip0_47_93)">
<mask id="mask0_47_93" style="mask-type:alpha" maskUnits="userSpaceOnUse" x="0" y="0" width="16" height="16">
<path fill-rule="evenodd" clip-rule="evenodd" d="M11.3459 15.8908C11.4732 15.9404 11.6094 15.9633 11.746 15.958C11.8825 15.9528 12.0165 15.9195 12.1397 15.8603L15.4338 14.2751C15.6034 14.1935 15.7466 14.0656 15.8468 13.9062C15.9469 13.7468 16.0001 13.5623 16 13.374V2.62614C16.0001 2.43785 15.947 2.25336 15.8468 2.09392C15.7466 1.93448 15.6035 1.80657 15.4338 1.72489L12.1397 0.140018C11.9535 0.050456 11.7442 0.0209681 11.5405 0.055635C11.3369 0.0903019 11.1491 0.187409 11.003 0.333518L4.69679 6.08677L1.95004 4.00164C1.82612 3.90761 1.6732 3.85991 1.51779 3.8668C1.36238 3.8737 1.21428 3.93476 1.09917 4.03939L0.21817 4.84077C0.149513 4.90321 0.0946465 4.9793 0.0570791 5.06416C0.0195116 5.14903 7.07861e-05 5.2408 1.92945e-07 5.3336C-7.04002e-05 5.42641 0.0192308 5.51821 0.0566691 5.60313C0.0941074 5.68805 0.148858 5.76422 0.21742 5.82677L2.59954 8.00002L0.217545 10.1734C0.149021 10.236 0.0943025 10.3121 0.0568875 10.397C0.0194725 10.4819 0.000183783 10.5737 0.000254369 10.6665C0.000324955 10.7593 0.0197532 10.851 0.0572974 10.9359C0.0948416 11.0207 0.149676 11.0968 0.218295 11.1593L1.09929 11.9606C1.21439 12.0653 1.36248 12.1264 1.51789 12.1333C1.6733 12.1402 1.82623 12.0925 1.95017 11.9985L4.69692 9.91352L11.0032 15.6666C11.1008 15.7642 11.2174 15.8405 11.3459 15.8908ZM12.0024 4.36789L7.21755 8.00002L12.0025 11.6323L12.0024 4.36789Z" fill="white"/>
</mask>
<g mask="url(#mask0_47_93)">
<path d="M15.434 1.72768L12.1372 0.14018C11.951 0.0505038 11.7415 0.0209534 11.5378 0.0556228C11.3341 0.0902923 11.1461 0.187465 11.0001 0.33368L0.207829 10.1736C0.139254 10.2361 0.0844891 10.3122 0.0470409 10.3972C0.00959275 10.4821 -0.00971396 10.5739 -0.00964336 10.6667C-0.00957276 10.7595 0.00987359 10.8512 0.0474509 10.9361C0.0850282 11.0209 0.139909 11.097 0.208579 11.1594L1.09008 11.9608C1.20521 12.0656 1.3534 12.1267 1.50892 12.1337C1.66444 12.1406 1.81747 12.0928 1.94145 11.9987L14.9378 2.13931C15.3738 1.80856 16.0001 2.11956 16.0001 2.66681V2.62856C16.0001 2.44031 15.947 2.25589 15.8468 2.0965C15.7467 1.93711 15.6036 1.80935 15.434 1.72768Z" fill="#0065A9"/>
<g filter="url(#filter0_d_47_93)">
<path d="M15.434 14.273L12.1372 15.8602C11.951 15.9499 11.7416 15.9795 11.5378 15.9449C11.3341 15.9103 11.1462 15.8132 11.0001 15.667L0.207829 5.82698C0.139254 5.76446 0.0844891 5.6883 0.0470409 5.60339C0.00959275 5.51848 -0.00971396 5.42668 -0.00964336 5.33388C-0.00957276 5.24108 0.00987359 5.14931 0.0474509 5.06446C0.0850282 4.9796 0.139909 4.90353 0.208579 4.84111L1.09008 4.03973C1.20521 3.93495 1.3534 3.87379 1.50892 3.86687C1.66444 3.85995 1.81747 3.90771 1.94145 4.00186L14.9378 13.8611C15.3738 14.192 16.0001 13.881 16.0001 13.3337V13.372C16.0001 13.5602 15.947 13.7446 15.8468 13.904C15.7467 14.0634 15.6036 14.1913 15.434 14.273Z" fill="#007ACC"/>
</g>
<g filter="url(#filter1_d_47_93)">
<path d="M12.1374 15.8604C11.9511 15.9499 11.7416 15.9794 11.5379 15.9447C11.3342 15.91 11.1463 15.8129 11.0001 15.6668C11.3691 16.0358 12.0001 15.7744 12.0001 15.2525V0.74767C12.0001 0.225794 11.3691 -0.0355805 11.0001 0.333544C11.1463 0.187443 11.3342 0.0903406 11.5379 0.0556554C11.7416 0.0209701 11.9511 0.0504144 12.1374 0.139919L15.4335 1.72517C15.6032 1.80679 15.7465 1.93468 15.8467 2.09413C15.9469 2.25357 16.0001 2.43808 16.0001 2.62642V13.3742C16.0001 13.5625 15.9469 13.747 15.8467 13.9065C15.7465 14.0659 15.6032 14.1938 15.4335 14.2754L12.1374 15.8604Z" fill="#1F9CF0"/>
</g>
<path opacity="0.25" fill-rule="evenodd" clip-rule="evenodd" d="M11.3363 15.8908C11.4636 15.9404 11.5998 15.9633 11.7363 15.958C11.8729 15.9528 12.0068 15.9195 12.13 15.8603L15.4241 14.2751C15.5938 14.1935 15.7369 14.0656 15.8371 13.9061C15.9373 13.7467 15.9904 13.5622 15.9903 13.3739V2.62614C15.9904 2.43785 15.9373 2.25336 15.8371 2.09392C15.7369 1.93448 15.5938 1.80657 15.4241 1.72489L12.13 0.140018C11.9438 0.050456 11.7345 0.0209681 11.5308 0.055635C11.3272 0.0903019 11.1394 0.187409 10.9933 0.333518L4.68709 6.08677L1.94034 4.00177C1.81642 3.90774 1.66349 3.86003 1.50808 3.86693C1.35267 3.87382 1.20458 3.93488 1.08947 4.03952L0.208466 4.84089C0.139826 4.90335 0.0849748 4.97944 0.0474184 5.0643C0.00986204 5.14916 -0.00957277 5.24093 -0.00964336 5.33373C-0.00971395 5.42653 0.00958124 5.51832 0.0470085 5.60324C0.0844357 5.68816 0.139171 5.76433 0.207716 5.82689L2.58984 8.00002L0.207841 10.1733C0.139279 10.2358 0.0845282 10.312 0.0470899 10.3969C0.00965164 10.4818 -0.00964956 10.5736 -0.00957896 10.6664C-0.00950837 10.7592 0.00993246 10.851 0.0474999 10.9359C0.0850673 11.0207 0.139934 11.0968 0.208591 11.1593L1.08959 11.9606C1.20469 12.0653 1.35278 12.1264 1.50819 12.1333C1.6636 12.1402 1.81653 12.0925 1.94047 11.9985L4.68734 9.91339L10.9936 15.6666C11.0912 15.7642 11.2079 15.8405 11.3363 15.8908ZM11.9928 4.36777L7.20784 8.00002L11.9928 11.6321V4.36777Z" fill="url(#paint0_linear_47_93)"/>
</g>
</g>
<defs>
<filter id="filter0_d_47_93" x="-1.05139" y="2.82446" width="18.0933" height="14.1763" filterUnits="userSpaceOnUse" color-interpolation-filters="sRGB">
<feFlood flood-opacity="0" result="BackgroundImageFix"/>
<feColorMatrix in="SourceAlpha" type="matrix" values="0 0 0 0 0 0 0 0 0 0 0 0 0 0 0 0 0 0 127 0" result="hardAlpha"/>
<feOffset/>
<feGaussianBlur stdDeviation="0.520875"/>
<feColorMatrix type="matrix" values="0 0 0 0 0 0 0 0 0 0 0 0 0 0 0 0 0 0 0.25 0"/>
<feBlend mode="overlay" in2="BackgroundImageFix" result="effect1_dropShadow_47_93"/>
<feBlend mode="normal" in="SourceGraphic" in2="effect1_dropShadow_47_93" result="shape"/>
</filter>
<filter id="filter1_d_47_93" x="9.95837" y="-1.00025" width="7.0835" height="18.001" filterUnits="userSpaceOnUse" color-interpolation-filters="sRGB">
<feFlood flood-opacity="0" result="BackgroundImageFix"/>
<feColorMatrix in="SourceAlpha" type="matrix" values="0 0 0 0 0 0 0 0 0 0 0 0 0 0 0 0 0 0 127 0" result="hardAlpha"/>
<feOffset/>
<feGaussianBlur stdDeviation="0.520875"/>
<feColorMatrix type="matrix" values="0 0 0 0 0 0 0 0 0 0 0 0 0 0 0 0 0 0 0.25 0"/>
<feBlend mode="overlay" in2="BackgroundImageFix" result="effect1_dropShadow_47_93"/>
<feBlend mode="normal" in="SourceGraphic" in2="effect1_dropShadow_47_93" result="shape"/>
</filter>
<linearGradient id="paint0_linear_47_93" x1="7.99034" y1="0.0412678" x2="7.99034" y2="15.9588" gradientUnits="userSpaceOnUse">
<stop stop-color="white"/>
<stop offset="1" stop-color="white" stop-opacity="0"/>
</linearGradient>
<clipPath id="clip0_47_93">
<rect width="16" height="16" fill="white"/>
</clipPath>
</defs>
</svg>
