<svg width="53" height="52" viewBox="0 0 53 52" fill="none" xmlns="http://www.w3.org/2000/svg">
<g clip-path="url(#clip0_44_59)">
<path d="M44.2012 0H8.79883C3.93937 0 0 3.9578 0 8.84V43.0768C0 47.959 3.93937 51.9168 8.79883 51.9168H44.2012C49.0606 51.9168 53 47.959 53 43.0768V8.84C53 3.9578 49.0606 0 44.2012 0Z" fill="#001E36"/>
<path d="M11.9341 36.4073V13.5817C11.9341 13.4152 12.0052 13.3319 12.1475 13.3317L12.3726 13.3311L12.7572 13.3269L13.2918 13.3163L15.0826 13.2783L17.0028 13.2425C17.6782 13.2307 18.3477 13.2247 19.0114 13.2246C20.8126 13.2246 22.3296 13.4508 23.5624 13.9033C24.6746 14.281 25.6889 14.9033 26.5312 15.725C27.2454 16.437 27.7974 17.2963 28.149 18.2434C28.4814 19.1652 28.65 20.1385 28.6469 21.1188C28.6469 23.0243 28.2083 24.596 27.3312 25.834C26.4734 27.0418 25.277 27.9655 23.8945 28.4872L23.7759 28.5309C22.3322 29.0719 20.7335 29.2674 18.9802 29.2797L18.7077 29.2805L18.3034 29.2785L18.0995 29.2756L17.8722 29.2701L17.7351 29.2647L17.6519 29.2604L17.4471 29.2529L17.1968 29.2477L16.82 29.245L16.7362 29.2448V36.3715C16.7424 36.4152 16.7384 36.4597 16.7245 36.5016C16.7107 36.5434 16.6873 36.5815 16.6562 36.6127C16.6251 36.6439 16.5873 36.6674 16.5456 36.6814C16.5039 36.6953 16.4596 36.6993 16.4161 36.693H12.1831C12.017 36.6932 11.9339 36.5979 11.9341 36.4073ZM16.7364 17.6182V25.0629C17.0442 25.0869 17.3285 25.0988 17.5893 25.0987H18.7628C19.5718 25.0959 20.3761 24.9749 21.1505 24.7395L21.3049 24.691C22.0095 24.481 22.639 24.0717 23.1183 23.5121C23.5639 22.9842 23.7946 22.2567 23.8106 21.3297L23.8117 21.226C23.8303 20.535 23.6514 19.8532 23.296 19.2614C22.9225 18.689 22.3825 18.2461 21.7494 17.9932C20.923 17.6703 20.0402 17.5185 19.1539 17.5468L18.703 17.5481L18.4185 17.5506L18.1471 17.5541L17.7641 17.5616L17.4846 17.5695L17.3395 17.5749L17.1455 17.5841L16.9803 17.5943L16.8861 17.6018L16.8047 17.6097L16.7689 17.6138L16.7364 17.6182ZM42.3938 23.7093C41.7735 23.3891 41.1156 23.1486 40.4357 22.9933L40.2783 22.9592C39.5302 22.7868 38.7665 22.6918 37.9991 22.6757L37.8074 22.6734C37.3575 22.6612 36.9083 22.7153 36.4741 22.8342C36.1978 22.8962 35.9521 23.0543 35.7806 23.2806C35.6646 23.4617 35.603 23.6726 35.6029 23.8879C35.6094 24.0968 35.6844 24.2977 35.8162 24.4593C36.0049 24.681 36.2318 24.8668 36.4859 25.0078L36.5629 25.0488C37.0699 25.323 37.5922 25.5674 38.1273 25.7809C39.3204 26.1825 40.4605 26.7283 41.5226 27.4063C42.2461 27.865 42.8448 28.4972 43.2649 29.246C43.618 29.955 43.7949 30.7393 43.7805 31.5319C43.8016 32.5787 43.5038 33.607 42.9271 34.4791C42.3096 35.3642 41.4518 36.0523 40.456 36.4613C39.4131 36.9217 38.1324 37.1597 36.6141 37.1752L36.4563 37.176C35.515 37.1854 34.5751 37.1027 33.6498 36.9289L33.4519 36.8902C32.6728 36.7467 31.9145 36.5067 31.1942 36.1757C31.1218 36.1383 31.0605 36.0821 31.0168 36.013C30.9731 35.944 30.9484 35.8644 30.9453 35.7826V31.8893C30.9411 31.8515 30.9471 31.8132 30.9628 31.7786C30.9785 31.744 31.0032 31.7143 31.0344 31.6927C31.0649 31.6753 31.0999 31.6677 31.1349 31.6709C31.1698 31.6741 31.2029 31.6879 31.2298 31.7106C32.0804 32.2145 33.0041 32.5821 33.9674 32.8001C34.8165 33.014 35.6876 33.128 36.5629 33.1396C37.3923 33.1396 38.0026 33.0324 38.3939 32.818C38.5705 32.7366 38.7199 32.6056 38.824 32.4408C38.9281 32.276 38.9825 32.0845 38.9806 31.8893C38.9806 31.5801 38.8029 31.2824 38.4473 30.9963C38.2983 30.8765 38.0845 30.7462 37.8062 30.6053L37.673 30.5396L37.531 30.4724L37.4565 30.4383L37.3004 30.3688L37.219 30.3334L37.0493 30.2619L36.9608 30.2255L36.7774 30.1517L36.6822 30.1142L36.4849 30.0379L36.2785 29.9603C35.1619 29.5702 34.1033 29.0295 33.1318 28.3529C32.4368 27.8673 31.8646 27.2251 31.4609 26.4775C31.1113 25.7736 30.9346 24.9959 30.9453 24.2093C30.9431 23.2642 31.2016 22.3369 31.6919 21.5303C32.2509 20.6421 33.0533 19.9349 34.003 19.4944C35.0457 18.9707 36.3493 18.7087 37.9138 18.7083C38.8301 18.7009 39.7456 18.7666 40.6516 18.9049C41.3076 18.9886 41.949 19.1629 42.5575 19.4228C42.6555 19.4511 42.7343 19.5237 42.7708 19.6194C42.795 19.7065 42.8068 19.7966 42.8064 19.8873V23.495C42.8116 23.5803 42.7708 23.662 42.6998 23.7093C42.6522 23.733 42.5998 23.7454 42.5468 23.7454C42.4937 23.7454 42.4413 23.733 42.3938 23.7093Z" fill="#31A8FF"/>
</g>
<defs>
<clipPath id="clip0_44_59">
<rect width="53" height="52" fill="white"/>
</clipPath>
</defs>
</svg>
