<svg width="24" height="24" viewBox="0 0 24 24" fill="none" xmlns="http://www.w3.org/2000/svg">
<path d="M14.122 8.465C14.3106 8.28284 14.5632 8.18205 14.8254 8.18433C15.0876 8.1866 15.3384 8.29177 15.5239 8.47718C15.7093 8.66259 15.8144 8.9134 15.8167 9.1756C15.819 9.4378 15.7182 9.6904 15.536 9.879L13.414 11.999L15.536 14.122C15.7182 14.3106 15.819 14.5632 15.8167 14.8254C15.8144 15.0876 15.7093 15.3384 15.5239 15.5238C15.3384 15.7092 15.0876 15.8144 14.8254 15.8167C14.5632 15.819 14.3106 15.7182 14.122 15.536L12 13.414L9.87904 15.536C9.69044 15.7182 9.43783 15.819 9.17564 15.8167C8.91344 15.8144 8.66263 15.7092 8.47722 15.5238C8.29181 15.3384 8.18664 15.0876 8.18436 14.8254C8.18209 14.5632 8.28288 14.3106 8.46504 14.122L10.585 12L8.46504 9.88C8.28288 9.6914 8.18209 9.43879 8.18436 9.1766C8.18664 8.9144 8.29181 8.66359 8.47722 8.47818C8.66263 8.29277 8.91344 8.1876 9.17564 8.18533C9.43783 8.18305 9.69044 8.28384 9.87904 8.466L11.999 10.586L14.122 8.465Z" fill="black"/>
</svg>
