<svg width="13" height="13" viewBox="0 0 13 13" fill="none" xmlns="http://www.w3.org/2000/svg">
<path d="M12 0H0.5C0.223437 0 0 0.223437 0 0.5V12C0 12.2766 0.223437 12.5 0.5 12.5H12C12.2766 12.5 12.5 12.2766 12.5 12V0.5C12.5 0.223437 12.2766 0 12 0ZM6.26719 6.34531L3.26719 8.86094C3.18594 8.92969 3.0625 8.87188 3.0625 8.76562V7.78594C3.0625 7.75 3.07969 7.71406 3.10781 7.69063L4.82344 6.25L3.10781 4.80937C3.09345 4.79803 3.08189 4.78353 3.07404 4.76701C3.06618 4.75048 3.06223 4.73236 3.0625 4.71406V3.73438C3.0625 3.62812 3.18594 3.57031 3.26719 3.63906L6.26719 6.15312C6.32812 6.20312 6.32812 6.29531 6.26719 6.34531ZM9.4375 8.76562C9.4375 8.83438 9.38437 8.89062 9.32031 8.89062H6.42969C6.36563 8.89062 6.3125 8.83438 6.3125 8.76562V8.01562C6.3125 7.94687 6.36563 7.89062 6.42969 7.89062H9.32031C9.38437 7.89062 9.4375 7.94687 9.4375 8.01562V8.76562Z" fill="white"/>
</svg>
