<svg width="19" height="27" viewBox="0 0 19 27" fill="none" xmlns="http://www.w3.org/2000/svg">
<g clip-path="url(#clip0_47_87)">
<path d="M9.48847 26.932L1.75622 24.7689L0.0330811 5.29297H18.967L17.2421 24.7659L9.48847 26.932Z" fill="#264DE4"/>
<path d="M15.7653 23.5258L17.2393 6.88525H9.5V25.2761L15.7653 23.5258Z" fill="#2965F1"/>
<path d="M3.9833 14.1086L4.19572 16.4972H9.50006V14.1086H3.9833ZM3.5564 9.27393L3.77185 11.6626H9.50006V9.27393H3.5564ZM9.50006 20.3121L9.48967 20.3149L6.84985 19.5966L6.68108 17.6916H4.30163L4.63368 21.4421L9.48915 22.8003L9.50006 22.7973V20.3121Z" fill="#EBEBEB"/>
<path d="M4.48901 0H7.35979V1.20984H5.68958V2.41968H7.35994V3.62944H4.48901V0ZM7.93403 0H10.8049V1.05203H9.13459V1.26242H10.8049V3.6821H7.9341V2.57734H9.60439V2.36695H7.93395L7.93403 0ZM11.3791 0H14.25V1.05203H12.5797V1.26242H14.25V3.6821H11.3791V2.57734H13.0494V2.36695H11.3792L11.3791 0Z" fill="black"/>
<path d="M15.0017 14.1086L15.4295 9.27393H9.4919V11.6626H12.8319L12.6162 14.1086H9.4919V16.4972H12.4107L12.1355 19.5951L9.49182 20.3142V22.7992L14.3511 21.4421L14.3868 21.0385L14.9439 14.75L15.0017 14.1086Z" fill="white"/>
</g>
<defs>
<clipPath id="clip0_47_87">
<rect width="19" height="27" fill="white"/>
</clipPath>
</defs>
</svg>
