<svg width="15" height="19" viewBox="0 0 15 19" fill="none" xmlns="http://www.w3.org/2000/svg">
<path d="M5.30004 5.85C5.86004 5.85 6.31004 5.4 6.31004 4.84C6.31004 4.28 5.86004 3.83 5.30004 3.83C4.74004 3.83 4.29004 4.28 4.29004 4.84C4.29004 5.4 4.74004 5.85 5.30004 5.85Z" fill="#223C1B"/>
<path fill-rule="evenodd" clip-rule="evenodd" d="M7.33 8.05C7.33 6.97 6.42 6.19 5.3 6.19C4.18 6.19 3.27 6.97 3.27 8.05V8.56C3.27 8.65 3.31 8.74 3.37 8.8C3.43 8.86 3.52 8.9 3.61 8.9H6.99C7.08 8.9 7.17 8.86 7.23 8.8C7.29 8.74 7.33 8.65 7.33 8.56V8.05ZM3.25 11C3.25 10.8011 3.32902 10.6103 3.46967 10.4697C3.61032 10.329 3.80109 10.25 4 10.25H11C11.1989 10.25 11.3897 10.329 11.5303 10.4697C11.671 10.6103 11.75 10.8011 11.75 11C11.75 11.1989 11.671 11.3897 11.5303 11.5303C11.3897 11.671 11.1989 11.75 11 11.75H4C3.80109 11.75 3.61032 11.671 3.46967 11.5303C3.32902 11.3897 3.25 11.1989 3.25 11ZM3.25 14C3.25 13.8011 3.32902 13.6103 3.46967 13.4697C3.61032 13.329 3.80109 13.25 4 13.25H11C11.1989 13.25 11.3897 13.329 11.5303 13.4697C11.671 13.6103 11.75 13.8011 11.75 14C11.75 14.1989 11.671 14.3897 11.5303 14.5303C11.3897 14.671 11.1989 14.75 11 14.75H4C3.80109 14.75 3.61032 14.671 3.46967 14.5303C3.32902 14.3897 3.25 14.1989 3.25 14Z" fill="#223C1B"/>
<path fill-rule="evenodd" clip-rule="evenodd" d="M0 2C0 0.898 0.898 0 2 0H8.69C9.252 0 9.782 0.238 10.155 0.631L10.161 0.638L14.473 5.34C14.832 5.723 15 6.224 15 6.7V17C15 18.102 14.102 19 13 19H2C0.898 19 0 18.102 0 17V2ZM8.689 2H2V17H13V6.692L8.704 2.007L8.701 2.006L8.689 2Z" fill="#223C1B"/>
<path fill-rule="evenodd" clip-rule="evenodd" d="M8.68994 0C8.95516 0 9.20951 0.105357 9.39705 0.292893C9.58459 0.48043 9.68994 0.734784 9.68994 1V5.7H13.9999C14.1313 5.7 14.2613 5.72587 14.3826 5.77612C14.504 5.82638 14.6142 5.90003 14.707 5.99289C14.7999 6.08575 14.8736 6.19599 14.9238 6.31732C14.9741 6.43864 14.9999 6.56868 14.9999 6.7C14.9999 6.83132 14.9741 6.96136 14.9238 7.08268C14.8736 7.20401 14.7999 7.31425 14.707 7.40711C14.6142 7.49997 14.504 7.57362 14.3826 7.62388C14.2613 7.67413 14.1313 7.7 13.9999 7.7H8.68994C8.42472 7.7 8.17037 7.59464 7.98283 7.40711C7.7953 7.21957 7.68994 6.96522 7.68994 6.7V1C7.68994 0.734784 7.7953 0.48043 7.98283 0.292893C8.17037 0.105357 8.42472 0 8.68994 0Z" fill="#223C1B"/>
</svg>
