<svg width="14" height="14" viewBox="0 0 14 14" fill="none" xmlns="http://www.w3.org/2000/svg">
<path fill-rule="evenodd" clip-rule="evenodd" d="M7.19904 0.727999C7.13624 0.700751 7.06851 0.686691 7.00004 0.686691C6.93158 0.686691 6.86385 0.700751 6.80104 0.727999L0.301045 3.545C0.211736 3.58385 0.135718 3.64793 0.0823246 3.72938C0.0289314 3.81083 0.000488281 3.90611 0.000488281 4.0035C0.000488281 4.10089 0.0289314 4.19616 0.0823246 4.27761C0.135718 4.35907 0.211736 4.42315 0.301045 4.462L1.19404 4.849V10.44C0.933976 10.555 0.721338 10.7559 0.591762 11.009C0.462186 11.2622 0.423546 11.5521 0.482318 11.8303C0.54109 12.1086 0.693703 12.3581 0.914581 12.5372C1.13546 12.7163 1.41118 12.8141 1.69554 12.8141C1.97991 12.8141 2.25563 12.7163 2.47651 12.5372C2.69739 12.3581 2.85 12.1086 2.90877 11.8303C2.96754 11.5521 2.9289 11.2622 2.79933 11.009C2.66975 10.7559 2.45711 10.555 2.19704 10.44V5.283L6.80005 7.278C6.86285 7.30525 6.93058 7.31931 6.99904 7.31931C7.06751 7.31931 7.13524 7.30525 7.19804 7.278L13.698 4.462C13.7874 4.42315 13.8634 4.35907 13.9168 4.27761C13.9702 4.19616 13.9986 4.10089 13.9986 4.0035C13.9986 3.90611 13.9702 3.81083 13.9168 3.72938C13.8634 3.64793 13.7874 3.58385 13.698 3.545L7.19904 0.727999ZM2.95604 9.353L2.95104 6.973L6.30404 8.425C6.52359 8.52008 6.7603 8.56914 6.99954 8.56914C7.23879 8.56914 7.4755 8.52008 7.69504 8.425L11.049 6.972V9.352C11.0494 9.46133 11.0139 9.56776 10.948 9.655L10.549 9.352L10.947 9.655V9.657L10.944 9.659L10.939 9.666L10.924 9.685L10.873 9.745C10.8139 9.81139 10.7518 9.87512 10.687 9.936C10.4655 10.1449 10.2229 10.3302 9.96305 10.489C9.31305 10.887 8.33604 11.273 7.00004 11.273C5.66404 11.273 4.68704 10.887 4.04004 10.488C3.77986 10.3301 3.53716 10.1451 3.31604 9.936C3.23261 9.8566 3.15381 9.77246 3.08004 9.684L3.06504 9.664L3.06004 9.658L3.05804 9.656C3.05704 9.655 3.05704 9.654 3.45604 9.352L3.05604 9.654C2.99113 9.56745 2.95604 9.46118 2.95604 9.353Z" fill="#223C1B"/>
</svg>
