<svg width="15" height="21" viewBox="0 0 15 21" fill="none" xmlns="http://www.w3.org/2000/svg">
<g clip-path="url(#clip0_47_81)">
<path d="M14.974 4.1167L13.6122 19.2623L7.49091 20.9471L1.38649 19.2646L0.026123 4.1167H14.974Z" fill="#E44D26"/>
<path d="M7.5 19.659L12.4463 18.2976L13.61 5.35498H7.5V19.659Z" fill="#F16529"/>
<path d="M4.85271 9.07072H7.49998V7.21289H2.80762L2.85238 7.71131L3.31234 12.831H7.49998V10.9732H5.02375L4.85271 9.07072ZM5.27447 13.7599H3.39596L3.65811 16.677L7.49137 17.7334L7.49998 17.7311V15.7982L7.49178 15.8003L5.40771 15.2416L5.27447 13.7599Z" fill="#EBEBEB"/>
<path d="M1.41675 0H2.36772V0.932784H3.23767V0H4.1887V2.8247H3.23772V1.87883H2.36778V2.8247H1.41681L1.41675 0ZM5.43921 0.93674H4.60214V0H7.22796V0.93674H6.39036V2.8247H5.43939V0.93674H5.43921ZM7.64468 0H8.63626L9.24622 0.992526L9.8556 0H10.8476V2.8247H9.90048V1.42463L9.24622 2.42896H9.22981L8.57515 1.42463V2.8247H7.64468V0ZM11.3209 0H12.2721V1.89105H13.6095V2.8247H11.3208L11.3209 0Z" fill="black"/>
<path d="M7.49359 12.831H9.7979L9.58064 15.2405L7.49353 15.7997V17.7326L11.3298 16.677L11.358 16.3631L11.7978 11.4721L11.8434 10.9732H7.49359V12.831ZM7.49359 9.06618V9.07072H12.0137L12.0512 8.65316L12.1365 7.71131L12.1812 7.21289H7.49359V9.06618Z" fill="white"/>
</g>
<defs>
<clipPath id="clip0_47_81">
<rect width="15" height="21" fill="white"/>
</clipPath>
</defs>
</svg>
