<svg width="20" height="20" viewBox="0 0 20 20" fill="none" xmlns="http://www.w3.org/2000/svg">
<path d="M10 20C8.63333 20 7.34167 19.7373 6.125 19.212C4.90833 18.6867 3.846 17.97 2.938 17.062C2.03 16.154 1.31333 15.0917 0.788 13.875C0.262667 12.6583 0 11.3667 0 10C0 8.61667 0.271 7.31667 0.813 6.1C1.355 4.88333 2.08833 3.825 3.013 2.925C3.93767 2.025 5.01667 1.31267 6.25 0.788C7.48333 0.263333 8.8 0.000666667 10.2 0C11.5333 0 12.7917 0.229333 13.975 0.688C15.1583 1.14667 16.196 1.78 17.088 2.588C17.98 3.396 18.6883 4.35433 19.213 5.463C19.7377 6.57167 20 7.76733 20 9.05C20 10.9667 19.4167 12.4377 18.25 13.463C17.0833 14.4883 15.6667 15.0007 14 15H12.15C12 15 11.896 15.0417 11.838 15.125C11.78 15.2083 11.7507 15.3 11.75 15.4C11.75 15.6 11.875 15.8877 12.125 16.263C12.375 16.6383 12.5 17.0673 12.5 17.55C12.5 18.3833 12.271 19 11.813 19.4C11.355 19.8 10.7507 20 10 20ZM4.5 11C4.93333 11 5.29167 10.8583 5.575 10.575C5.85833 10.2917 6 9.93333 6 9.5C6 9.06667 5.85833 8.70833 5.575 8.425C5.29167 8.14167 4.93333 8 4.5 8C4.06667 8 3.70833 8.14167 3.425 8.425C3.14167 8.70833 3 9.06667 3 9.5C3 9.93333 3.14167 10.2917 3.425 10.575C3.70833 10.8583 4.06667 11 4.5 11ZM7.5 7C7.93333 7 8.29167 6.85833 8.575 6.575C8.85833 6.29167 9 5.93333 9 5.5C9 5.06667 8.85833 4.70833 8.575 4.425C8.29167 4.14167 7.93333 4 7.5 4C7.06667 4 6.70833 4.14167 6.425 4.425C6.14167 4.70833 6 5.06667 6 5.5C6 5.93333 6.14167 6.29167 6.425 6.575C6.70833 6.85833 7.06667 7 7.5 7ZM12.5 7C12.9333 7 13.2917 6.85833 13.575 6.575C13.8583 6.29167 14 5.93333 14 5.5C14 5.06667 13.8583 4.70833 13.575 4.425C13.2917 4.14167 12.9333 4 12.5 4C12.0667 4 11.7083 4.14167 11.425 4.425C11.1417 4.70833 11 5.06667 11 5.5C11 5.93333 11.1417 6.29167 11.425 6.575C11.7083 6.85833 12.0667 7 12.5 7ZM15.5 11C15.9333 11 16.2917 10.8583 16.575 10.575C16.8583 10.2917 17 9.93333 17 9.5C17 9.06667 16.8583 8.70833 16.575 8.425C16.2917 8.14167 15.9333 8 15.5 8C15.0667 8 14.7083 8.14167 14.425 8.425C14.1417 8.70833 14 9.06667 14 9.5C14 9.93333 14.1417 10.2917 14.425 10.575C14.7083 10.8583 15.0667 11 15.5 11Z" fill="white"/>
</svg>
