<svg width="16" height="16" viewBox="0 0 16 16" fill="none" xmlns="http://www.w3.org/2000/svg">
<path d="M8 6C11.722 6 14 7.295 14 8C14 8.705 11.722 10 8 10C4.278 10 2 8.705 2 8C2 7.295 4.278 6 8 6ZM8 5C4.134 5 1 6.343 1 8C1 9.657 4.134 11 8 11C11.866 11 15 9.657 15 8C15 6.343 11.866 5 8 5Z" fill="#00BCD4"/>
<path d="M8 7C7.80222 7 7.60888 7.05865 7.44443 7.16853C7.27998 7.27841 7.15181 7.43459 7.07612 7.61732C7.00043 7.80004 6.98063 8.00111 7.01922 8.19509C7.0578 8.38907 7.15304 8.56725 7.29289 8.70711C7.43275 8.84696 7.61093 8.9422 7.80491 8.98079C7.99889 9.01937 8.19996 8.99957 8.38268 8.92388C8.56541 8.84819 8.72159 8.72002 8.83147 8.55557C8.94135 8.39112 9 8.19778 9 8C9 7.73478 8.89464 7.48043 8.70711 7.29289C8.51957 7.10536 8.26522 7 8 7Z" fill="#00BCD4"/>
<path d="M5.22895 2.75342C6.23745 2.75342 8.19745 4.34192 9.73195 6.99992C11.5929 10.2234 11.6104 12.8434 10.9999 13.1959C10.9295 13.2324 10.8507 13.2497 10.7714 13.2459C9.76295 13.2459 7.80245 11.6579 6.26795 8.99992C4.40695 5.77642 4.38945 3.15642 4.99995 2.80392C5.07052 2.76731 5.14954 2.74956 5.22895 2.75342ZM5.22845 1.75392C4.97363 1.74931 4.72218 1.81264 4.49995 1.93742C3.06495 2.76592 3.46895 6.15192 5.40195 9.49992C7.04395 12.3449 9.26195 14.2464 10.7719 14.2464C11.0267 14.2506 11.278 14.187 11.4999 14.0619C12.9349 13.2339 12.5309 9.84792 10.5979 6.49992C8.95595 3.65492 6.73795 1.75342 5.22795 1.75342L5.22845 1.75392Z" fill="#00BCD4"/>
<path d="M10.7715 2.75362C10.8507 2.74986 10.9295 2.76711 11 2.80362C11.6105 3.15662 11.593 5.77662 9.73196 9.00012C8.19696 11.6581 6.23695 13.2466 5.22845 13.2466C5.14921 13.2504 5.07038 13.2331 4.99995 13.1966C4.38945 12.8431 4.40695 10.2231 6.26795 7.00012C7.80295 4.34212 9.76295 2.75362 10.7715 2.75362ZM10.7715 1.75362C9.26145 1.75362 7.04395 3.65562 5.40145 6.50012C3.46945 9.84812 3.06495 13.2341 4.49995 14.0621C4.72209 14.1872 4.97354 14.2509 5.22845 14.2466C6.73845 14.2466 8.95595 12.3446 10.5985 9.50012C12.5305 6.15212 12.935 2.76612 11.5 1.93812C11.2778 1.813 11.0264 1.74932 10.7715 1.75362Z" fill="#00BCD4"/>
</svg>
