<svg width="16" height="20" viewBox="0 0 16 20" fill="none" xmlns="http://www.w3.org/2000/svg">
<path d="M3.3895 14.5378C2.00096 13.5586 0.960247 12.1628 0.418133 10.5525C-0.12398 8.94224 -0.139334 7.20118 0.374297 5.5816C0.887929 3.96202 1.90387 2.54803 3.27492 1.54449C4.64597 0.540956 6.30092 0 8 0C9.69908 0 11.354 0.540956 12.7251 1.54449C14.0961 2.54803 15.1121 3.96202 15.6257 5.5816C16.1393 7.20118 16.124 8.94224 15.5819 10.5525C15.0398 12.1628 13.999 13.5586 12.6105 14.5378L14.6935 19.2978C14.727 19.374 14.7409 19.4574 14.734 19.5403C14.7271 19.6232 14.6996 19.7031 14.654 19.7727C14.6084 19.8424 14.5462 19.8995 14.4729 19.939C14.3997 19.9785 14.3177 19.999 14.2345 19.9988H1.7645C1.68142 19.999 1.59961 19.9784 1.52648 19.9389C1.45334 19.8995 1.39119 19.8425 1.34563 19.773C1.30007 19.7035 1.27255 19.6238 1.26554 19.541C1.25853 19.4582 1.27227 19.375 1.3055 19.2988L3.3895 14.5378ZM4.1185 8.96884C4.33569 9.83378 4.83556 10.6014 5.53876 11.1499C6.24196 11.6983 7.10821 11.9962 8 11.9962C8.89179 11.9962 9.75804 11.6983 10.4612 11.1499C11.1644 10.6014 11.6643 9.83378 11.8815 8.96884L9.9405 8.48384C9.83284 8.9172 9.58325 9.30207 9.23149 9.57713C8.87973 9.8522 8.44604 10.0016 7.9995 10.0016C7.55296 10.0016 7.11927 9.8522 6.76751 9.57713C6.41575 9.30207 6.16616 8.9172 6.0585 8.48384L4.1185 8.96884Z" fill="white"/>
</svg>
