<svg width="24" height="24" viewBox="0 0 24 24" fill="none" xmlns="http://www.w3.org/2000/svg">
<path d="M10.8 12L6 14.5C6 15.678 6 15.768 6.352 16.134C6.703 16.5 7.269 16.5 8.401 16.5H13.201C14.333 16.5 14.899 16.5 15.251 16.134C15.603 15.768 15.602 15.678 15.602 14.5M10.8 12L18 8.25M10.8 12L6 9.5C6 8.321 6 8.232 6.352 7.866C6.703 7.5 7.269 7.5 8.4 7.5H13.2C14.332 7.5 14.898 7.5 15.25 7.866C15.602 8.232 15.601 8.321 15.601 9.5M10.8 12L18 15.75" stroke="#223C1B" stroke-width="1.5" stroke-linecap="round" stroke-linejoin="round"/>
<path d="M2.49805 12C2.49805 7.522 2.49805 5.282 3.88905 3.891C5.28005 2.5 7.52005 2.5 11.998 2.5C16.476 2.5 18.715 2.5 20.107 3.891C21.497 5.282 21.497 7.521 21.497 12C21.497 16.478 21.497 18.717 20.107 20.109C18.715 21.499 16.477 21.499 11.997 21.499C7.51905 21.499 5.28005 21.499 3.88905 20.109C2.49805 18.717 2.49805 16.479 2.49805 11.999" stroke="#223C1B" stroke-width="1.5" stroke-linecap="round" stroke-linejoin="round"/>
</svg>
